<svg class="site-logo__svg" 
    xmlns="http://www.w3.org/2000/svg" width="24" height="24" viewBox="0 0 122 50" fill="#FF553E" preserveAspectRatio="xMinYMin">
    <path d="M61.4 11.6c0-3.5 2-6 5.3-6 3.2 0 5.3 2.4 5.3 5.9v13.8c0 3.2-1.3 6.2-5.6 6.2H65V37h1.4c4 0 6.1-1.4 9.5-4.8l22.9-23v20c0 5.6 3.3 8 7.1 8 2.6 0 4.1-.9 6.5-3.3l9.3-9.3-3.8-3.6-9.4 9.3c-1.3 1.2-1.8 1.4-2.3 1.4-1.2 0-2-.9-2-2.2V3.3c0-1.7-.9-3.1-2.7-3.1-.8 0-1.4.3-2.7 1.6L77.4 23.3V10.7C77.4 4.8 72.6 0 66.7 0c-3.2 0-5.5 1.1-8.7 4.3L32.8 29.5c-1.9 1.9-2.9 2.5-4.7 2.5-2.8 0-5.2-2.4-5.2-5.3L38 11.4c.6-.6.9-1.5.8-2.3C38 3.9 33.5 0 28.2 0c-2.9 0-5.3.8-8.9 4.3L0 23.7l3.8 3.8 13.6-13.6v12c0 7 4.7 11.4 10.7 11.4 3.5 0 5.5-1.1 8.6-4.2L56 13.8V50h5.4V11.6zM22.9 19v-8.4c0-2.9 2.4-5.3 5.3-5.3 2.2 0 4.1 1.4 5 3.4L22.9 19z"></path>
</svg>